<mxfile host="Electron" modified="2023-04-29T10:41:39.096Z" agent="Mozilla/5.0 (Windows NT 10.0; Win64; x64) AppleWebKit/537.36 (KHTML, like Gecko) draw.io/21.2.1 Chrome/112.0.5615.87 Electron/24.1.2 Safari/537.36" etag="OQwN4JbROAgXPDgoEcD4" version="21.2.1" type="device">
  <diagram name="PÃ¡gina-1" id="3sBXQg7ZyXqGn3FxedCr">
    <mxGraphModel dx="1104" dy="516" grid="1" gridSize="10" guides="1" tooltips="1" connect="1" arrows="1" fold="1" page="1" pageScale="1" pageWidth="827" pageHeight="1169" math="0" shadow="0">
      <root>
        <mxCell id="0" />
        <mxCell id="1" parent="0" />
        <mxCell id="E6zvAAp9TxMZpKU69LBY-1" value="Personas" style="shape=umlActor;verticalLabelPosition=bottom;verticalAlign=top;html=1;" vertex="1" parent="1">
          <mxGeometry x="220" y="360" width="30" height="60" as="geometry" />
        </mxCell>
        <mxCell id="E6zvAAp9TxMZpKU69LBY-8" value="autenticarse" style="ellipse;whiteSpace=wrap;html=1;" vertex="1" parent="1">
          <mxGeometry x="80" y="380" width="90" height="40" as="geometry" />
        </mxCell>
        <mxCell id="E6zvAAp9TxMZpKU69LBY-10" value="Huella_digital" style="ellipse;whiteSpace=wrap;html=1;" vertex="1" parent="1">
          <mxGeometry x="10" y="460" width="90" height="40" as="geometry" />
        </mxCell>
        <mxCell id="E6zvAAp9TxMZpKU69LBY-11" value="Usuar+Contra" style="ellipse;whiteSpace=wrap;html=1;" vertex="1" parent="1">
          <mxGeometry x="130" y="460" width="90" height="40" as="geometry" />
        </mxCell>
        <mxCell id="E6zvAAp9TxMZpKU69LBY-12" value="Profesores" style="shape=umlActor;verticalLabelPosition=bottom;verticalAlign=top;html=1;" vertex="1" parent="1">
          <mxGeometry x="340" y="230" width="30" height="60" as="geometry" />
        </mxCell>
        <mxCell id="E6zvAAp9TxMZpKU69LBY-13" value="Alumnos" style="shape=umlActor;verticalLabelPosition=bottom;verticalAlign=top;html=1;" vertex="1" parent="1">
          <mxGeometry x="350" y="500" width="30" height="60" as="geometry" />
        </mxCell>
        <mxCell id="E6zvAAp9TxMZpKU69LBY-14" value="Consultar_Nota_Modulo" style="ellipse;whiteSpace=wrap;html=1;" vertex="1" parent="1">
          <mxGeometry x="466" y="490" width="160" height="40" as="geometry" />
        </mxCell>
        <mxCell id="E6zvAAp9TxMZpKU69LBY-16" value="Consultar_Nota_Expediente" style="ellipse;whiteSpace=wrap;html=1;" vertex="1" parent="1">
          <mxGeometry x="466" y="570" width="160" height="40" as="geometry" />
        </mxCell>
        <mxCell id="E6zvAAp9TxMZpKU69LBY-17" value="Aceptar_Nota" style="ellipse;whiteSpace=wrap;html=1;" vertex="1" parent="1">
          <mxGeometry x="770" y="490" width="90" height="40" as="geometry" />
        </mxCell>
        <mxCell id="E6zvAAp9TxMZpKU69LBY-18" value="Poner_Notas_Alumno" style="ellipse;whiteSpace=wrap;html=1;" vertex="1" parent="1">
          <mxGeometry x="460" y="180" width="160" height="40" as="geometry" />
        </mxCell>
        <mxCell id="E6zvAAp9TxMZpKU69LBY-19" value="Modificar_Notas_Alumno" style="ellipse;whiteSpace=wrap;html=1;" vertex="1" parent="1">
          <mxGeometry x="460" y="240" width="160" height="40" as="geometry" />
        </mxCell>
        <mxCell id="E6zvAAp9TxMZpKU69LBY-20" value="Listar_Notas_Clase" style="ellipse;whiteSpace=wrap;html=1;" vertex="1" parent="1">
          <mxGeometry x="460" y="320" width="160" height="40" as="geometry" />
        </mxCell>
        <mxCell id="E6zvAAp9TxMZpKU69LBY-21" value="Generar_Informe_PDF" style="ellipse;whiteSpace=wrap;html=1;" vertex="1" parent="1">
          <mxGeometry x="685" y="240" width="160" height="40" as="geometry" />
        </mxCell>
        <mxCell id="E6zvAAp9TxMZpKU69LBY-22" value="Descargarlo" style="ellipse;whiteSpace=wrap;html=1;" vertex="1" parent="1">
          <mxGeometry x="705" y="370" width="90" height="40" as="geometry" />
        </mxCell>
        <mxCell id="E6zvAAp9TxMZpKU69LBY-33" value="&amp;lt;&amp;lt;extend&amp;gt;&amp;gt;" style="endArrow=open;endSize=12;dashed=1;html=1;rounded=0;exitX=0.05;exitY=0.75;exitDx=0;exitDy=0;exitPerimeter=0;entryX=1;entryY=0.5;entryDx=0;entryDy=0;" edge="1" parent="1" source="E6zvAAp9TxMZpKU69LBY-21" target="E6zvAAp9TxMZpKU69LBY-20">
          <mxGeometry width="160" relative="1" as="geometry">
            <mxPoint x="410" y="480" as="sourcePoint" />
            <mxPoint x="570" y="480" as="targetPoint" />
          </mxGeometry>
        </mxCell>
        <mxCell id="E6zvAAp9TxMZpKU69LBY-34" value="&amp;lt;&amp;lt;extend&amp;gt;&amp;gt;" style="endArrow=open;endSize=12;dashed=1;html=1;rounded=0;exitX=0.5;exitY=0;exitDx=0;exitDy=0;entryX=0.425;entryY=1.05;entryDx=0;entryDy=0;entryPerimeter=0;" edge="1" parent="1" source="E6zvAAp9TxMZpKU69LBY-22" target="E6zvAAp9TxMZpKU69LBY-21">
          <mxGeometry width="160" relative="1" as="geometry">
            <mxPoint x="410" y="480" as="sourcePoint" />
            <mxPoint x="570" y="480" as="targetPoint" />
          </mxGeometry>
        </mxCell>
        <mxCell id="E6zvAAp9TxMZpKU69LBY-35" value="&amp;lt;&amp;lt;extend&amp;gt;&amp;gt;" style="endArrow=open;endSize=12;dashed=1;html=1;rounded=0;exitX=0;exitY=0.5;exitDx=0;exitDy=0;entryX=1;entryY=0.5;entryDx=0;entryDy=0;" edge="1" parent="1" source="E6zvAAp9TxMZpKU69LBY-17" target="E6zvAAp9TxMZpKU69LBY-14">
          <mxGeometry width="160" relative="1" as="geometry">
            <mxPoint x="410" y="480" as="sourcePoint" />
            <mxPoint x="570" y="480" as="targetPoint" />
          </mxGeometry>
        </mxCell>
        <mxCell id="E6zvAAp9TxMZpKU69LBY-37" value="" style="endArrow=none;html=1;rounded=0;entryX=0;entryY=0.5;entryDx=0;entryDy=0;exitX=0.567;exitY=0.717;exitDx=0;exitDy=0;exitPerimeter=0;" edge="1" parent="1" source="E6zvAAp9TxMZpKU69LBY-12" target="E6zvAAp9TxMZpKU69LBY-19">
          <mxGeometry width="50" height="50" relative="1" as="geometry">
            <mxPoint x="460" y="500" as="sourcePoint" />
            <mxPoint x="510" y="450" as="targetPoint" />
          </mxGeometry>
        </mxCell>
        <mxCell id="E6zvAAp9TxMZpKU69LBY-38" value="" style="endArrow=none;html=1;rounded=0;entryX=0;entryY=0.5;entryDx=0;entryDy=0;exitX=0.667;exitY=0.667;exitDx=0;exitDy=0;exitPerimeter=0;" edge="1" parent="1" source="E6zvAAp9TxMZpKU69LBY-12" target="E6zvAAp9TxMZpKU69LBY-20">
          <mxGeometry width="50" height="50" relative="1" as="geometry">
            <mxPoint x="460" y="500" as="sourcePoint" />
            <mxPoint x="510" y="450" as="targetPoint" />
          </mxGeometry>
        </mxCell>
        <mxCell id="E6zvAAp9TxMZpKU69LBY-39" value="" style="endArrow=none;html=1;rounded=0;entryX=0;entryY=0.5;entryDx=0;entryDy=0;exitX=0.567;exitY=0.733;exitDx=0;exitDy=0;exitPerimeter=0;" edge="1" parent="1" source="E6zvAAp9TxMZpKU69LBY-12" target="E6zvAAp9TxMZpKU69LBY-18">
          <mxGeometry width="50" height="50" relative="1" as="geometry">
            <mxPoint x="460" y="400" as="sourcePoint" />
            <mxPoint x="510" y="350" as="targetPoint" />
          </mxGeometry>
        </mxCell>
        <mxCell id="E6zvAAp9TxMZpKU69LBY-40" value="" style="endArrow=none;html=1;rounded=0;entryX=0;entryY=0.5;entryDx=0;entryDy=0;exitX=0.467;exitY=0.7;exitDx=0;exitDy=0;exitPerimeter=0;" edge="1" parent="1" source="E6zvAAp9TxMZpKU69LBY-13" target="E6zvAAp9TxMZpKU69LBY-14">
          <mxGeometry width="50" height="50" relative="1" as="geometry">
            <mxPoint x="460" y="400" as="sourcePoint" />
            <mxPoint x="510" y="350" as="targetPoint" />
          </mxGeometry>
        </mxCell>
        <mxCell id="E6zvAAp9TxMZpKU69LBY-41" value="" style="endArrow=none;html=1;rounded=0;entryX=0;entryY=0.5;entryDx=0;entryDy=0;exitX=0.433;exitY=0.7;exitDx=0;exitDy=0;exitPerimeter=0;" edge="1" parent="1" source="E6zvAAp9TxMZpKU69LBY-13" target="E6zvAAp9TxMZpKU69LBY-16">
          <mxGeometry width="50" height="50" relative="1" as="geometry">
            <mxPoint x="460" y="400" as="sourcePoint" />
            <mxPoint x="510" y="350" as="targetPoint" />
          </mxGeometry>
        </mxCell>
        <mxCell id="E6zvAAp9TxMZpKU69LBY-42" value="" style="endArrow=block;dashed=1;endFill=0;endSize=12;html=1;rounded=0;exitX=0;exitY=1;exitDx=0;exitDy=0;exitPerimeter=0;" edge="1" parent="1" source="E6zvAAp9TxMZpKU69LBY-12">
          <mxGeometry width="160" relative="1" as="geometry">
            <mxPoint x="70" y="190" as="sourcePoint" />
            <mxPoint x="260" y="400" as="targetPoint" />
          </mxGeometry>
        </mxCell>
        <mxCell id="E6zvAAp9TxMZpKU69LBY-43" value="" style="endArrow=block;dashed=1;endFill=0;endSize=12;html=1;rounded=0;exitX=0.167;exitY=0.867;exitDx=0;exitDy=0;exitPerimeter=0;" edge="1" parent="1" source="E6zvAAp9TxMZpKU69LBY-13">
          <mxGeometry width="160" relative="1" as="geometry">
            <mxPoint x="410" y="480" as="sourcePoint" />
            <mxPoint x="270" y="430" as="targetPoint" />
          </mxGeometry>
        </mxCell>
        <mxCell id="E6zvAAp9TxMZpKU69LBY-44" value="" style="endArrow=none;html=1;rounded=0;entryX=0.433;entryY=0.617;entryDx=0;entryDy=0;entryPerimeter=0;exitX=1;exitY=0.5;exitDx=0;exitDy=0;" edge="1" parent="1" source="E6zvAAp9TxMZpKU69LBY-8" target="E6zvAAp9TxMZpKU69LBY-1">
          <mxGeometry width="50" height="50" relative="1" as="geometry">
            <mxPoint x="460" y="500" as="sourcePoint" />
            <mxPoint x="510" y="450" as="targetPoint" />
          </mxGeometry>
        </mxCell>
        <mxCell id="E6zvAAp9TxMZpKU69LBY-45" value="" style="endArrow=block;dashed=1;endFill=0;endSize=12;html=1;rounded=0;exitX=0.5;exitY=0;exitDx=0;exitDy=0;entryX=0.256;entryY=0.95;entryDx=0;entryDy=0;entryPerimeter=0;" edge="1" parent="1" source="E6zvAAp9TxMZpKU69LBY-10" target="E6zvAAp9TxMZpKU69LBY-8">
          <mxGeometry width="160" relative="1" as="geometry">
            <mxPoint x="410" y="480" as="sourcePoint" />
            <mxPoint x="570" y="480" as="targetPoint" />
          </mxGeometry>
        </mxCell>
        <mxCell id="E6zvAAp9TxMZpKU69LBY-46" value="" style="endArrow=block;dashed=1;endFill=0;endSize=12;html=1;rounded=0;exitX=0.5;exitY=0;exitDx=0;exitDy=0;entryX=0.722;entryY=1.025;entryDx=0;entryDy=0;entryPerimeter=0;" edge="1" parent="1" source="E6zvAAp9TxMZpKU69LBY-11" target="E6zvAAp9TxMZpKU69LBY-8">
          <mxGeometry width="160" relative="1" as="geometry">
            <mxPoint x="410" y="480" as="sourcePoint" />
            <mxPoint x="570" y="480" as="targetPoint" />
          </mxGeometry>
        </mxCell>
      </root>
    </mxGraphModel>
  </diagram>
</mxfile>
